<svg width="119" height="23" viewBox="0 0 119 23" fill="none"
    xmlns="http://www.w3.org/2000/svg">
    <g clipPath="url(#clip0_7703_19505)">
        <path d="M6.49275 0.681267L0.428341 6.56587C0.270531 6.71898 0 6.60962 0 6.39084V1.62192C0 0.878147 0.631237 0.265625 1.39774 0.265625H6.3124C6.53784 0.265625 6.65054 0.528134 6.49275 0.681267Z" fill="#F44767" />
        <path d="M21.2592 1.11878C21.2592 1.33754 21.169 1.5563 21.0112 1.70943C20.9887 1.7313 20.9887 1.7313 20.9661 1.75318L15.5555 7.00338L9.33331 13.0411L7.34941 14.9662L6.92109 15.3599L2.41223 19.757L0.405797 21.7039C0.15781 21.4414 0 21.1133 0 20.7195V12.6692C0 12.3411 0.135265 12.0348 0.383251 11.7942L11.8808 0.637513C12.1288 0.39688 12.4444 0.265625 12.7826 0.265625H20.38C20.8534 0.265625 21.2592 0.659389 21.2592 1.11878Z" fill="#2C4E9B" />
        <path d="M21.7782 15.8617C21.7782 15.9711 21.7331 16.0805 21.6655 16.168C21.6429 16.1899 21.6204 16.2118 21.5978 16.2336L16.3225 21.3744C15.849 21.8338 15.1953 22.0964 14.519 22.0964H1.3982C1.01495 22.0964 0.654236 21.9432 0.40625 21.7026L2.39014 19.7775L6.92152 15.3586L7.32734 14.9648C7.5753 15.2055 7.93603 15.3586 8.31929 15.3586H21.2597C21.5527 15.3586 21.7782 15.5992 21.7782 15.8617Z" fill="#27B7E4" />
        <path d="M26.2656 16.7297V14.9588L32.1057 8.11122H26.2656V5.75H35.7558V7.52092L29.9157 14.3685H35.8773V16.7297H26.2656Z" fill="#2C4E9B" />
        <path d="M48.408 11.1787C48.408 12.0051 48.2865 12.7135 47.9215 13.4218C47.5565 14.1302 47.1915 14.7205 46.5829 15.1928C46.0965 15.665 45.3665 16.1372 44.6364 16.3734C43.9064 16.6095 43.0546 16.8456 42.2032 16.8456C41.3514 16.8456 40.6214 16.7276 39.7696 16.3734C39.0396 16.1372 38.4313 15.665 37.8231 15.1928C37.3363 14.7205 36.8495 14.1302 36.4845 13.4218C36.1198 12.7135 35.998 12.0051 35.998 11.1787C35.998 10.3522 36.1198 9.64386 36.4845 8.93549C36.8495 8.22712 37.2145 7.63682 37.8231 7.16457C38.3096 6.69234 39.0396 6.22009 39.7696 5.98397C40.4996 5.74783 41.3514 5.51172 42.2032 5.51172C43.0546 5.51172 43.7847 5.62979 44.6364 5.98397C45.3665 6.22009 45.9747 6.69234 46.5829 7.16457C47.0697 7.63682 47.5565 8.22712 47.9215 8.93549C48.2865 9.64386 48.408 10.3522 48.408 11.1787ZM45.4879 11.1787C45.4879 10.7064 45.3665 10.3522 45.2447 9.88C45.1229 9.52582 44.8797 9.17163 44.5147 8.81745C44.1497 8.46326 43.9064 8.34519 43.5414 8.10908C43.1764 7.99101 42.6896 7.87294 42.3246 7.87294C41.8382 7.87294 41.4731 7.99101 41.1081 8.10908C40.7431 8.22712 40.3781 8.46326 40.1346 8.81745C39.8914 9.05356 39.6481 9.40775 39.4046 9.88C39.2831 10.2342 39.1613 10.7064 39.1613 11.1787C39.1613 11.6509 39.2831 12.0051 39.4046 12.4774C39.5263 12.8315 39.7696 13.1857 40.1346 13.5399C40.3781 13.776 40.7431 14.0121 41.1081 14.2483C41.4731 14.3663 41.9596 14.4844 42.3246 14.4844C42.8114 14.4844 43.1764 14.3663 43.5414 14.2483C43.9064 14.1302 44.2714 13.8941 44.5147 13.5399C44.7579 13.1857 45.0014 12.9496 45.2447 12.4774C45.3665 12.0051 45.4879 11.6509 45.4879 11.1787Z" fill="#2C4E9B" />
        <path d="M49.8691 16.7306V5.63281H58.8725V7.99403H52.6674V10.0011H56.8043V12.2443H52.6674V16.6125H49.8691V16.7306Z" fill="#2C4E9B" />
        <path d="M59.7246 7.99403V5.63281H69.9445V7.99403H66.173V16.6125H63.3747V7.99403H59.7246Z" fill="#2C4E9B" />
        <path d="M76.1489 16.7297H73.2289L70.6738 5.75H73.5939L74.9324 12.5976L76.8789 5.75H79.434L81.3808 12.5976L82.719 5.75H85.5173L82.9623 16.7297H80.0422L78.0957 9.64603L76.1489 16.7297Z" fill="#2C4E9B" />
        <path d="M84.7871 16.7297L89.4104 5.75H92.5737L97.1973 16.7297H94.1555L93.0605 14.0143H88.6804L87.5854 16.7297H84.7871ZM89.5322 11.8892H92.3305L90.9922 8.34733L89.5322 11.8892Z" fill="#2C4E9B" />
        <path d="M98.0488 16.7306V5.63281H103.889C104.497 5.63281 104.984 5.75085 105.47 5.86893C105.957 5.987 106.444 6.34118 106.687 6.57729C107.052 6.93148 107.295 7.28566 107.539 7.63985C107.782 8.1121 107.782 8.58436 107.782 9.05658C107.782 9.76495 107.539 10.3553 107.174 10.9456C106.809 11.5359 106.322 11.8901 105.592 12.2443L108.025 16.6125H104.862L102.672 12.5985H100.604V16.6125H98.0488V16.7306ZM103.645 7.99403H100.847V10.4733H103.645C104.132 10.4733 104.375 10.3553 104.74 10.1191C104.984 9.88302 105.105 9.64691 105.105 9.17466C105.105 8.7024 104.984 8.46629 104.74 8.23017C104.375 8.1121 104.01 7.99403 103.645 7.99403Z" fill="#2C4E9B" />
        <path d="M109.242 16.7306V5.63281H118.246V7.99403H112.04V10.0011H116.056V12.2443H112.04V14.3694H118.246V16.7306H109.242Z" fill="#2C4E9B" />
    </g>
    <defs>
        <clip_path id="clip0_7703_19505">
            <rect width="118.478" height="22.3543" fill="white" />
        </clip_path>
    </defs>
</svg>