<svg width="22" height="22" viewBox="0 0 22 22" fill="none"
    xmlns="http://www.w3.org/2000/svg">
    <path d="M6.49275 0.415642L0.428341 6.30024C0.270531 6.45336 0 6.34399 0 6.12521V1.3563C0 0.612522 0.631237 0 1.39774 0H6.3124C6.53784 0 6.65054 0.262509 6.49275 0.415642Z" fill="#F44767"/>
    <path d="M21.2592 0.853155C21.2592 1.07191 21.169 1.29067 21.0112 1.4438C20.9887 1.46568 20.9887 1.46568 20.9661 1.48755L15.5555 6.73775L9.33331 12.7755L7.34941 14.7005L6.92109 15.0943L2.41223 19.4913L0.405797 21.4383C0.15781 21.1758 0 20.8476 0 20.4539V12.4036C0 12.0755 0.135265 11.7692 0.383251 11.5286L11.8808 0.371888C12.1288 0.131255 12.4444 0 12.7826 0H20.38C20.8534 0 21.2592 0.393764 21.2592 0.853155Z" fill="#2C4E9B"/>
    <path d="M21.7782 15.5961C21.7782 15.7055 21.7331 15.8149 21.6655 15.9024C21.6429 15.9243 21.6204 15.9462 21.5978 15.968L16.3225 21.1088C15.849 21.5682 15.1953 21.8307 14.519 21.8307H1.3982C1.01495 21.8307 0.654236 21.6776 0.40625 21.437L2.39014 19.5119L6.92152 15.093L7.32734 14.6992C7.5753 14.9399 7.93603 15.093 8.31929 15.093H21.2597C21.5527 15.093 21.7782 15.3336 21.7782 15.5961Z" fill="#27B7E4"/>
</svg>
