<svg width="15" height="15" viewBox="0 0 15 15" fill="none"
    xmlns="http://www.w3.org/2000/svg">
    <path d="M7.01786 0.863588C7.04707 0.804562 7.0922 0.754876 7.14816 0.720138C7.20411 0.6854 7.26866 0.666992 7.33452 0.666992C7.40038 0.666992 7.46493 0.6854 7.52089 0.720138C7.57684 0.754876 7.62197 0.804562 7.65119 0.863588L9.19119 3.98292C9.29264 4.18823 9.4424 4.36586 9.62761 4.50056C9.81281 4.63525 10.0279 4.723 10.2545 4.75625L13.6985 5.26025C13.7638 5.26971 13.8251 5.29724 13.8755 5.33972C13.9259 5.38221 13.9635 5.43795 13.9839 5.50066C14.0043 5.56336 14.0067 5.63053 13.9909 5.69455C13.9751 5.75857 13.9417 5.81689 13.8945 5.86292L11.4039 8.28826C11.2396 8.44832 11.1167 8.64591 11.0457 8.86401C10.9748 9.08211 10.9579 9.31418 10.9965 9.54026L11.5845 12.9669C11.596 13.0321 11.589 13.0993 11.5642 13.1607C11.5394 13.2221 11.4978 13.2753 11.4442 13.3143C11.3906 13.3532 11.3272 13.3763 11.2611 13.3809C11.195 13.3854 11.129 13.3714 11.0705 13.3403L7.99186 11.7216C7.789 11.6151 7.56331 11.5594 7.33419 11.5594C7.10507 11.5594 6.87938 11.6151 6.67652 11.7216L3.59852 13.3403C3.54008 13.3712 3.47412 13.3851 3.40816 13.3804C3.34219 13.3757 3.27887 13.3526 3.22539 13.3137C3.1719 13.2748 3.13041 13.2217 3.10563 13.1604C3.08084 13.0991 3.07376 13.0321 3.08519 12.9669L3.67252 9.54092C3.71132 9.31474 3.69451 9.08252 3.62355 8.86429C3.55258 8.64605 3.42959 8.44836 3.26519 8.28826L0.774523 5.86359C0.726919 5.81761 0.693185 5.75919 0.677165 5.69497C0.661144 5.63076 0.663481 5.56333 0.683909 5.50038C0.704337 5.43743 0.742034 5.38148 0.792707 5.33891C0.843381 5.29634 0.904992 5.26885 0.970523 5.25959L4.41386 4.75625C4.64069 4.72325 4.85612 4.63563 5.04158 4.50091C5.22704 4.3662 5.37699 4.18844 5.47852 3.98292L7.01786 0.863588Z" fill="#FE9A00" stroke="#FE9A00" stroke-width="1.33333" stroke-linecap="round" stroke-linejoin="round"/>
</svg>
