<svg width="12" height="12" viewBox="0 0 12 12" fill="none" xmlns="http://www.w3.org/2000/svg">
<g clip-path="url(#clip0_6303_2573)">
<path d="M4.99854 5.99805H6.99796" stroke="#155DFC" stroke-width="0.999711" stroke-linecap="round" stroke-linejoin="round"/>
<path d="M4.99854 3.99902H6.99796" stroke="#155DFC" stroke-width="0.999711" stroke-linecap="round" stroke-linejoin="round"/>
<path d="M6.99796 10.4968V8.99727C6.99796 8.73213 6.89263 8.47785 6.70515 8.29037C6.51767 8.10289 6.26339 7.99756 5.99825 7.99756C5.73311 7.99756 5.47883 8.10289 5.29134 8.29037C5.10386 8.47785 4.99854 8.73213 4.99854 8.99727V10.4968" stroke="#155DFC" stroke-width="0.999711" stroke-linecap="round" stroke-linejoin="round"/>
<path d="M2.99893 4.99859H1.99922C1.73408 4.99859 1.4798 5.10392 1.29232 5.2914C1.10484 5.47888 0.999512 5.73316 0.999512 5.9983V9.49729C0.999512 9.76243 1.10484 10.0167 1.29232 10.2042C1.4798 10.3917 1.73408 10.497 1.99922 10.497H9.99691C10.262 10.497 10.5163 10.3917 10.7038 10.2042C10.8913 10.0167 10.9966 9.76243 10.9966 9.49729V4.49873C10.9966 4.23359 10.8913 3.97931 10.7038 3.79183C10.5163 3.60435 10.262 3.49902 9.99691 3.49902H8.9972" stroke="#155DFC" stroke-width="0.999711" stroke-linecap="round" stroke-linejoin="round"/>
<path d="M2.99902 10.4969V2.49922C2.99902 2.23408 3.10435 1.9798 3.29183 1.79232C3.47931 1.60484 3.73359 1.49951 3.99873 1.49951H7.99758C8.26272 1.49951 8.517 1.60484 8.70448 1.79232C8.89196 1.9798 8.99729 2.23408 8.99729 2.49922V10.4969" stroke="#155DFC" stroke-width="0.999711" stroke-linecap="round" stroke-linejoin="round"/>
</g>
<defs>
<clipPath id="clip0_6303_2573">
<rect width="11.9965" height="11.9965" fill="white"/>
</clipPath>
</defs>
</svg>
