<svg width="12" height="12" viewBox="0 0 12 12" fill="none" xmlns="http://www.w3.org/2000/svg">
<g clip-path="url(#clip0_6303_2553)">
<path d="M8.74735 9.49749H4.49858C3.8497 9.49732 3.21365 9.31672 2.6615 8.97587C2.10935 8.63502 1.66286 8.14735 1.37192 7.56735C1.08098 6.98735 0.957051 6.33788 1.01398 5.6915C1.07092 5.04512 1.30647 4.42731 1.69431 3.9071C2.08216 3.38688 2.60702 2.98477 3.21025 2.74568C3.81348 2.5066 4.47131 2.43997 5.11023 2.55323C5.74915 2.66649 6.34398 2.95519 6.82827 3.38706C7.31256 3.81893 7.66721 4.37696 7.85261 4.99879H8.74735C9.34391 4.99879 9.91605 5.23577 10.3379 5.65761C10.7597 6.07944 10.9967 6.65157 10.9967 7.24814C10.9967 7.8447 10.7597 8.41683 10.3379 8.83867C9.91605 9.2605 9.34391 9.49749 8.74735 9.49749Z" stroke="#155DFC" stroke-width="0.999711" stroke-linecap="round" stroke-linejoin="round"/>
</g>
<defs>
<clipPath id="clip0_6303_2553">
<rect width="11.9965" height="11.9965" fill="white"/>
</clipPath>
</defs>
</svg>
