<svg width="12" height="12" viewBox="0 0 12 12" fill="none" xmlns="http://www.w3.org/2000/svg">
<g clip-path="url(#clip0_6303_2566)">
<path d="M3.99888 10.9968C4.27494 10.9968 4.49873 10.773 4.49873 10.4969C4.49873 10.2209 4.27494 9.99707 3.99888 9.99707C3.72282 9.99707 3.49902 10.2209 3.49902 10.4969C3.49902 10.773 3.72282 10.9968 3.99888 10.9968Z" stroke="#155DFC" stroke-width="0.999711" stroke-linecap="round" stroke-linejoin="round"/>
<path d="M9.49741 10.9968C9.77348 10.9968 9.99727 10.773 9.99727 10.4969C9.99727 10.2209 9.77348 9.99707 9.49741 9.99707C9.22135 9.99707 8.99756 10.2209 8.99756 10.4969C8.99756 10.773 9.22135 10.9968 9.49741 10.9968Z" stroke="#155DFC" stroke-width="0.999711" stroke-linecap="round" stroke-linejoin="round"/>
<path d="M1.0249 1.0249H2.02461L3.35423 7.23311C3.403 7.46047 3.52951 7.66372 3.71198 7.80787C3.89445 7.95202 4.12146 8.02805 4.35394 8.02288H9.24252C9.47005 8.02251 9.69064 7.94454 9.86786 7.80186C10.0451 7.65917 10.1683 7.4603 10.2172 7.2381L11.042 3.52418H2.55946" stroke="#155DFC" stroke-width="0.999711" stroke-linecap="round" stroke-linejoin="round"/>
</g>
<defs>
<clipPath id="clip0_6303_2566">
<rect width="11.9965" height="11.9965" fill="white"/>
</clipPath>
</defs>
</svg>
