<svg width="12" height="12" viewBox="0 0 12 12" fill="none" xmlns="http://www.w3.org/2000/svg">
<g clip-path="url(#clip0_6303_2527)">
<path d="M4.83421 2.06728C4.86175 1.77753 4.99632 1.50847 5.21165 1.31264C5.42697 1.11681 5.70757 1.0083 5.99862 1.0083C6.28967 1.0083 6.57027 1.11681 6.78559 1.31264C7.00091 1.50847 7.13549 1.77753 7.16303 2.06728C7.17958 2.25445 7.24099 2.43488 7.34205 2.5933C7.4431 2.75171 7.58084 2.88345 7.74359 2.97736C7.90635 3.07126 8.08933 3.12458 8.27706 3.13278C8.46478 3.14099 8.65172 3.10385 8.82205 3.0245C9.08653 2.90443 9.38622 2.88705 9.66281 2.97576C9.93939 3.06447 10.1731 3.25291 10.3184 3.50442C10.4637 3.75592 10.5102 4.05249 10.4489 4.33641C10.3876 4.62033 10.2228 4.87128 9.98671 5.04042C9.83295 5.14831 9.70743 5.29165 9.62078 5.45831C9.53412 5.62497 9.48888 5.81005 9.48888 5.99789C9.48888 6.18574 9.53412 6.37081 9.62078 6.53747C9.70743 6.70414 9.83295 6.84747 9.98671 6.95537C10.2228 7.12451 10.3876 7.37546 10.4489 7.65938C10.5102 7.94329 10.4637 8.23987 10.3184 8.49137C10.1731 8.74287 9.93939 8.93132 9.66281 9.02003C9.38622 9.10873 9.08653 9.09136 8.82205 8.97128C8.65172 8.89194 8.46478 8.8548 8.27706 8.863C8.08933 8.87121 7.90635 8.92452 7.74359 9.01843C7.58084 9.11234 7.4431 9.24407 7.34205 9.40249C7.24099 9.5609 7.17958 9.74133 7.16303 9.92851C7.13549 10.2183 7.00091 10.4873 6.78559 10.6831C6.57027 10.879 6.28967 10.9875 5.99862 10.9875C5.70757 10.9875 5.42697 10.879 5.21165 10.6831C4.99632 10.4873 4.86175 10.2183 4.83421 9.92851C4.81768 9.74127 4.75628 9.56077 4.65519 9.40229C4.5541 9.24382 4.41631 9.11205 4.25349 9.01813C4.09067 8.92421 3.90761 8.87092 3.71982 8.86277C3.53203 8.85461 3.34504 8.89183 3.17469 8.97128C2.91021 9.09136 2.61051 9.10873 2.33393 9.02003C2.05735 8.93132 1.82366 8.74287 1.67836 8.49137C1.53306 8.23987 1.48653 7.94329 1.54784 7.65938C1.60914 7.37546 1.77389 7.12451 2.01002 6.95537C2.16379 6.84747 2.28931 6.70414 2.37596 6.53747C2.46262 6.37081 2.50786 6.18574 2.50786 5.99789C2.50786 5.81005 2.46262 5.62497 2.37596 5.45831C2.28931 5.29165 2.16379 5.14831 2.01002 5.04042C1.77422 4.87119 1.60976 4.62034 1.54861 4.33662C1.48745 4.05289 1.53396 3.75656 1.67911 3.50522C1.82426 3.25388 2.05766 3.06548 2.33397 2.97664C2.61028 2.8878 2.90975 2.90486 3.17419 3.0245C3.34452 3.10385 3.53145 3.14099 3.71918 3.13278C3.9069 3.12458 4.08989 3.07126 4.25264 2.97736C4.4154 2.88345 4.55313 2.75171 4.65419 2.5933C4.75525 2.43488 4.81665 2.25445 4.83321 2.06728" stroke="#155DFC" stroke-width="0.999711" stroke-linecap="round" stroke-linejoin="round"/>
<path d="M5.9981 7.49767C6.82629 7.49767 7.49767 6.82629 7.49767 5.9981C7.49767 5.16991 6.82629 4.49854 5.9981 4.49854C5.16991 4.49854 4.49854 5.16991 4.49854 5.9981C4.49854 6.82629 5.16991 7.49767 5.9981 7.49767Z" stroke="#155DFC" stroke-width="0.999711" stroke-linecap="round" stroke-linejoin="round"/>
</g>
<defs>
<clipPath id="clip0_6303_2527">
<rect width="11.9965" height="11.9965" fill="white"/>
</clipPath>
</defs>
</svg>
