<svg width="12" height="12" viewBox="0 0 12 12" fill="none" xmlns="http://www.w3.org/2000/svg">
<g clip-path="url(#clip0_6303_2541)">
<path d="M5.99805 0.999512V10.9966" stroke="#155DFC" stroke-width="0.999711" stroke-linecap="round" stroke-linejoin="round"/>
<path d="M8.49743 2.49951H4.74852C4.28452 2.49951 3.83953 2.68383 3.51144 3.01193C3.18334 3.34002 2.99902 3.78501 2.99902 4.24901C2.99902 4.713 3.18334 5.15799 3.51144 5.48608C3.83953 5.81418 4.28452 5.9985 4.74852 5.9985H7.24779C7.71179 5.9985 8.15678 6.18282 8.48487 6.51091C8.81297 6.83901 8.99729 7.284 8.99729 7.74799C8.99729 8.21199 8.81297 8.65698 8.48487 8.98507C8.15678 9.31317 7.71179 9.49749 7.24779 9.49749H2.99902" stroke="#155DFC" stroke-width="0.999711" stroke-linecap="round" stroke-linejoin="round"/>
</g>
<defs>
<clipPath id="clip0_6303_2541">
<rect width="11.9965" height="11.9965" fill="white"/>
</clipPath>
</defs>
</svg>
