<svg width="12" height="12" viewBox="0 0 12 12" fill="none" xmlns="http://www.w3.org/2000/svg">
<g clip-path="url(#clip0_6303_2596)">
<path d="M0.999512 4.74849C0.999522 4.19225 1.16826 3.6491 1.48344 3.19077C1.79862 2.73245 2.24541 2.3805 2.76481 2.18143C3.2842 1.98236 3.85177 1.94552 4.39254 2.07579C4.93331 2.20605 5.42184 2.49728 5.79362 2.91102C5.81981 2.93902 5.85147 2.96134 5.88664 2.9766C5.9218 2.99186 5.95973 2.99974 5.99807 2.99974C6.0364 2.99974 6.07433 2.99186 6.1095 2.9766C6.14466 2.96134 6.17632 2.93902 6.20251 2.91102C6.57312 2.49459 7.06177 2.20091 7.60342 2.06907C8.14507 1.93722 8.71403 1.97347 9.23457 2.17298C9.75511 2.37249 10.2025 2.7258 10.5173 3.18589C10.8321 3.64598 10.9993 4.19103 10.9966 4.74849C10.9966 5.89316 10.2468 6.74791 9.49705 7.49769L6.75185 10.1534C6.65871 10.2604 6.54387 10.3463 6.41497 10.4055C6.28606 10.4647 6.14604 10.4958 6.00421 10.4966C5.86237 10.4975 5.72197 10.4683 5.59233 10.4107C5.46268 10.3532 5.34677 10.2687 5.25228 10.1629L2.49908 7.49769C1.74929 6.74791 0.999512 5.89816 0.999512 4.74849Z" stroke="#155DFC" stroke-width="0.999711" stroke-linecap="round" stroke-linejoin="round"/>
</g>
<defs>
<clipPath id="clip0_6303_2596">
<rect width="11.9965" height="11.9965" fill="white"/>
</clipPath>
</defs>
</svg>
