<svg width="12" height="12" viewBox="0 0 12 12" fill="none" xmlns="http://www.w3.org/2000/svg">
<g clip-path="url(#clip0_6303_2533)">
<path d="M7.99749 10.4972V9.49747C7.99749 8.96719 7.78683 8.45863 7.41187 8.08366C7.03691 7.7087 6.52834 7.49805 5.99807 7.49805H2.99893C2.46865 7.49805 1.96009 7.7087 1.58513 8.08366C1.21016 8.45863 0.999512 8.96719 0.999512 9.49747V10.4972" stroke="#155DFC" stroke-width="0.999711" stroke-linecap="round" stroke-linejoin="round"/>
<path d="M7.99756 1.56348C8.42631 1.67463 8.80602 1.925 9.07709 2.2753C9.34815 2.6256 9.49522 3.05599 9.49522 3.49892C9.49522 3.94184 9.34815 4.37223 9.07709 4.72253C8.80602 5.07283 8.42631 5.3232 7.99756 5.43436" stroke="#155DFC" stroke-width="0.999711" stroke-linecap="round" stroke-linejoin="round"/>
<path d="M10.9966 10.4971V9.49743C10.9963 9.05442 10.8489 8.62407 10.5774 8.27394C10.306 7.92381 9.92601 7.67374 9.49707 7.56299" stroke="#155DFC" stroke-width="0.999711" stroke-linecap="round" stroke-linejoin="round"/>
<path d="M4.49893 5.49835C5.60318 5.49835 6.49835 4.60318 6.49835 3.49893C6.49835 2.39468 5.60318 1.49951 4.49893 1.49951C3.39468 1.49951 2.49951 2.39468 2.49951 3.49893C2.49951 4.60318 3.39468 5.49835 4.49893 5.49835Z" stroke="#155DFC" stroke-width="0.999711" stroke-linecap="round" stroke-linejoin="round"/>
</g>
<defs>
<clipPath id="clip0_6303_2533">
<rect width="11.9965" height="11.9965" fill="white"/>
</clipPath>
</defs>
</svg>
