<svg width="12" height="12" viewBox="0 0 12 12" fill="none" xmlns="http://www.w3.org/2000/svg">
<g clip-path="url(#clip0_6303_2601)">
<path d="M6.99778 8.99749V2.99922C6.99778 2.73408 6.89245 2.4798 6.70497 2.29232C6.51749 2.10484 6.26321 1.99951 5.99807 1.99951H1.99922C1.73408 1.99951 1.4798 2.10484 1.29232 2.29232C1.10484 2.4798 0.999512 2.73408 0.999512 2.99922V8.49763C0.999512 8.6302 1.05217 8.75734 1.14592 8.85108C1.23966 8.94482 1.3668 8.99749 1.49937 8.99749H2.49908" stroke="#155DFC" stroke-width="0.999711" stroke-linecap="round" stroke-linejoin="round"/>
<path d="M7.49767 8.99756H4.49854" stroke="#155DFC" stroke-width="0.999711" stroke-linecap="round" stroke-linejoin="round"/>
<path d="M9.49732 8.99758H10.497C10.6296 8.99758 10.7567 8.94491 10.8505 8.85117C10.9442 8.75743 10.9969 8.63029 10.9969 8.49772V6.67325C10.9967 6.55981 10.9579 6.44982 10.8869 6.36134L9.14742 4.18697C9.10068 4.12843 9.04136 4.08114 8.97388 4.04861C8.90639 4.01608 8.83246 3.99913 8.75754 3.99902H6.99805" stroke="#155DFC" stroke-width="0.999711" stroke-linecap="round" stroke-linejoin="round"/>
<path d="M8.49776 9.99698C9.04988 9.99698 9.49747 9.54939 9.49747 8.99727C9.49747 8.44514 9.04988 7.99756 8.49776 7.99756C7.94563 7.99756 7.49805 8.44514 7.49805 8.99727C7.49805 9.54939 7.94563 9.99698 8.49776 9.99698Z" stroke="#155DFC" stroke-width="0.999711" stroke-linecap="round" stroke-linejoin="round"/>
<path d="M3.49922 9.99698C4.05135 9.99698 4.49893 9.54939 4.49893 8.99727C4.49893 8.44514 4.05135 7.99756 3.49922 7.99756C2.9471 7.99756 2.49951 8.44514 2.49951 8.99727C2.49951 9.54939 2.9471 9.99698 3.49922 9.99698Z" stroke="#155DFC" stroke-width="0.999711" stroke-linecap="round" stroke-linejoin="round"/>
</g>
<defs>
<clipPath id="clip0_6303_2601">
<rect width="11.9965" height="11.9965" fill="white"/>
</clipPath>
</defs>
</svg>
