<svg width="12" height="12" viewBox="0 0 12 12" fill="none" xmlns="http://www.w3.org/2000/svg">
<g clip-path="url(#clip0_6303_2512)">
<path d="M5.49835 2.99908C7.0186 3.03824 8.50444 2.54296 9.69714 1.59948C9.7714 1.54379 9.85971 1.50987 9.95216 1.50153C10.0446 1.4932 10.1376 1.51077 10.2206 1.55228C10.3036 1.5938 10.3735 1.65761 10.4223 1.73658C10.4711 1.81554 10.4969 1.90654 10.4969 1.99937V7.99763C10.4969 8.09046 10.4711 8.18146 10.4223 8.26042C10.3735 8.33939 10.3036 8.4032 10.2206 8.44471C10.1376 8.48623 10.0446 8.5038 9.95216 8.49547C9.85971 8.48713 9.7714 8.45321 9.69714 8.39752C8.50444 7.45404 7.0186 6.95876 5.49835 6.99792H2.49922C2.23408 6.99792 1.9798 6.89259 1.79232 6.70511C1.60484 6.51763 1.49951 6.26335 1.49951 5.99821V3.99879C1.49951 3.73365 1.60484 3.47937 1.79232 3.29189C1.9798 3.1044 2.23408 2.99908 2.49922 2.99908H5.49835Z" stroke="#155DFC" stroke-width="0.999711" stroke-linecap="round" stroke-linejoin="round"/>
<path d="M2.99902 6.99805C2.99902 8.29589 3.41997 9.55873 4.19868 10.597C4.35776 10.8091 4.59459 10.9493 4.85706 10.9868C5.11954 11.0243 5.38616 10.956 5.59827 10.7969C5.81038 10.6379 5.95061 10.401 5.98811 10.1386C6.0256 9.87608 5.9573 9.60946 5.79821 9.39735C5.27908 8.70517 4.99844 7.86328 4.99844 6.99805" stroke="#155DFC" stroke-width="0.999711" stroke-linecap="round" stroke-linejoin="round"/>
<path d="M3.99902 2.99902V6.99787" stroke="#155DFC" stroke-width="0.999711" stroke-linecap="round" stroke-linejoin="round"/>
</g>
<defs>
<clipPath id="clip0_6303_2512">
<rect width="11.9965" height="11.9965" fill="white"/>
</clipPath>
</defs>
</svg>
