<svg width="12" height="12" viewBox="0 0 12 12" fill="none" xmlns="http://www.w3.org/2000/svg">
<path d="M7.49767 10.4967V6.4979C7.49767 6.36533 7.445 6.23819 7.35126 6.14445C7.25752 6.05071 7.13038 5.99805 6.99781 5.99805H4.99839C4.86582 5.99805 4.73868 6.05071 4.64494 6.14445C4.5512 6.23819 4.49854 6.36533 4.49854 6.4979V10.4967" stroke="#155DFC" stroke-width="0.999711" stroke-linecap="round" stroke-linejoin="round"/>
<path d="M1.49951 4.99859C1.49948 4.85317 1.53117 4.70949 1.59238 4.57757C1.65359 4.44566 1.74284 4.32869 1.85391 4.23482L5.3529 1.23568C5.53334 1.08318 5.76196 0.999512 5.99821 0.999512C6.23446 0.999512 6.46308 1.08318 6.64352 1.23568L10.1425 4.23482C10.2536 4.32869 10.3428 4.44566 10.404 4.57757C10.4653 4.70949 10.4969 4.85317 10.4969 4.99859V9.49729C10.4969 9.76243 10.3916 10.0167 10.2041 10.2042C10.0166 10.3917 9.76234 10.497 9.4972 10.497H2.49922C2.23408 10.497 1.9798 10.3917 1.79232 10.2042C1.60484 10.0167 1.49951 9.76243 1.49951 9.49729V4.99859Z" stroke="#155DFC" stroke-width="0.999711" stroke-linecap="round" stroke-linejoin="round"/>
</svg>
