<svg width="12" height="12" viewBox="0 0 12 12" fill="none" xmlns="http://www.w3.org/2000/svg">
<g clip-path="url(#clip0_6303_2559)">
<path d="M7.99787 4.99854C7.99787 5.52881 7.78721 6.03738 7.41225 6.41234C7.03729 6.7873 6.52872 6.99796 5.99844 6.99796C5.46817 6.99796 4.9596 6.7873 4.58464 6.41234C4.20968 6.03738 3.99902 5.52881 3.99902 4.99854" stroke="#155DFC" stroke-width="0.999711" stroke-linecap="round" stroke-linejoin="round"/>
<path d="M1.55127 3.01611H10.4457" stroke="#155DFC" stroke-width="0.999711" stroke-linecap="round" stroke-linejoin="round"/>
<path d="M1.69945 2.73251C1.56967 2.90556 1.49951 3.11603 1.49951 3.33234V9.99691C1.49951 10.262 1.60484 10.5163 1.79232 10.7038C1.9798 10.8913 2.23408 10.9966 2.49922 10.9966H9.4972C9.76234 10.9966 10.0166 10.8913 10.2041 10.7038C10.3916 10.5163 10.4969 10.262 10.4969 9.99691V3.33234C10.4969 3.11603 10.4268 2.90556 10.297 2.73251L9.29726 1.3994C9.20414 1.27524 9.08339 1.17446 8.94457 1.10505C8.80576 1.03565 8.65269 0.999512 8.49749 0.999512H3.49893C3.34373 0.999512 3.19066 1.03565 3.05185 1.10505C2.91303 1.17446 2.79228 1.27524 2.69916 1.3994L1.69945 2.73251Z" stroke="#155DFC" stroke-width="0.999711" stroke-linecap="round" stroke-linejoin="round"/>
</g>
<defs>
<clipPath id="clip0_6303_2559">
<rect width="11.9965" height="11.9965" fill="white"/>
</clipPath>
</defs>
</svg>
